<mxfile host="app.diagrams.net" modified="2022-07-03T06:08:18.912Z" agent="5.0 (Macintosh; Intel Mac OS X 10_15_7) AppleWebKit/537.36 (KHTML, like Gecko) Chrome/103.0.0.0 Safari/537.36" etag="e34h5hL4kZA4iNlsTTWU" version="20.0.4" type="github">
  <diagram id="jh8vf0HZd4zdgq4STpVQ" name="Page-1">
    <mxGraphModel dx="1018" dy="659" grid="1" gridSize="10" guides="1" tooltips="1" connect="1" arrows="1" fold="1" page="1" pageScale="1" pageWidth="850" pageHeight="1100" math="0" shadow="0">
      <root>
        <mxCell id="0" />
        <mxCell id="1" parent="0" />
        <mxCell id="Kk4obVniK6FhzwkOs6oO-1" value="编程语言API" style="rounded=1;whiteSpace=wrap;html=1;" vertex="1" parent="1">
          <mxGeometry x="220" y="330" width="120" height="60" as="geometry" />
        </mxCell>
        <mxCell id="Kk4obVniK6FhzwkOs6oO-2" value="dev" style="shape=umlActor;verticalLabelPosition=bottom;verticalAlign=top;html=1;outlineConnect=0;" vertex="1" parent="1">
          <mxGeometry x="100" y="330" width="30" height="60" as="geometry" />
        </mxCell>
        <mxCell id="Kk4obVniK6FhzwkOs6oO-3" value="" style="endArrow=classic;html=1;rounded=0;" edge="1" parent="1">
          <mxGeometry width="50" height="50" relative="1" as="geometry">
            <mxPoint x="140" y="359.5" as="sourcePoint" />
            <mxPoint x="210" y="359.5" as="targetPoint" />
          </mxGeometry>
        </mxCell>
        <mxCell id="Kk4obVniK6FhzwkOs6oO-6" value="编程语言API&lt;br&gt;调用操作系统API" style="rounded=1;whiteSpace=wrap;html=1;" vertex="1" parent="1">
          <mxGeometry x="430" y="330" width="120" height="60" as="geometry" />
        </mxCell>
        <mxCell id="Kk4obVniK6FhzwkOs6oO-7" value="" style="endArrow=classic;html=1;rounded=0;" edge="1" parent="1">
          <mxGeometry width="50" height="50" relative="1" as="geometry">
            <mxPoint x="350" y="359.5" as="sourcePoint" />
            <mxPoint x="420" y="359.5" as="targetPoint" />
          </mxGeometry>
        </mxCell>
        <mxCell id="Kk4obVniK6FhzwkOs6oO-8" value="" style="endArrow=classic;html=1;rounded=0;" edge="1" parent="1">
          <mxGeometry width="50" height="50" relative="1" as="geometry">
            <mxPoint x="570" y="359.5" as="sourcePoint" />
            <mxPoint x="640" y="359.5" as="targetPoint" />
          </mxGeometry>
        </mxCell>
        <mxCell id="Kk4obVniK6FhzwkOs6oO-9" value="OS创建thread" style="text;html=1;strokeColor=none;fillColor=none;align=center;verticalAlign=middle;whiteSpace=wrap;rounded=0;" vertex="1" parent="1">
          <mxGeometry x="650" y="350" width="110" height="20" as="geometry" />
        </mxCell>
      </root>
    </mxGraphModel>
  </diagram>
</mxfile>
